#Comment line ignore any data following # character 
#Hierarchical Translation and Rotation (.htr) file 
[Header]	
#Header keywords are followed by a single value 
FileType HTR		#Single word string
DataType HTRS		#Translation followed by rotation and scale data
FileVersion 1		#integer
NumSegments 84		#integer
NumFrames 2		#integer
DataFrameRate 30		#integer, data frame rate in this file
EulerRotationOrder ZYX
CalibrationUnits mm
RotationUnits Degrees
GlobalAxisofGravity Y
BoneLengthAxis Y
ScaleFactor 1.00
[SegmentNames&Hierarchy]
#CHILD	PARENT
MASTER GLOBAL
root MASTER
chest root
L_mid_tent01 root
R_mid_tent01 root
spine01 root
Bip01_Neck chest
L_humerus chest
R_humerus chest
weapon_bone chest
Bip01_Head Bip01_Neck
eye_left_bone Bip01_Head
eye_right_bone Bip01_Head
L_forearm L_humerus
L_front_hand L_forearm
L_weapon_bone L_forearm
L_front_hand01_01 L_front_hand
L_front_hand02_01 L_front_hand
L_front_hand03_01 L_front_hand
L_front_hand01_02 L_front_hand01_01
L_front_hand02_02 L_front_hand02_01
L_front_hand03_02 L_front_hand03_01
R_forearm R_humerus
R_front_hand R_forearm
R_weapon_bone R_forearm
R_front_hand01_01 R_front_hand
R_front_hand02_01 R_front_hand
R_front_hand03_01 R_front_hand
R_front_hand01_02 R_front_hand01_01
R_front_hand02_02 R_front_hand02_01
R_front_hand03_02 R_front_hand03_01
null_rope01_connect L_mid_tent01
Rope1_Seg01 null_rope01_connect
Rope1_Seg02 Rope1_Seg01
Rope1_Seg03 Rope1_Seg02
Rope1_Seg04 Rope1_Seg03
Rope1_Seg05 Rope1_Seg04
Rope1_Seg06 Rope1_Seg05
Rope1_Seg07 Rope1_Seg06
Rope1_Seg09 Rope1_Seg07
L_mid_hand01 Rope1_Seg09
L_mid_hand02 Rope1_Seg09
L_mid_hand03 Rope1_Seg09
null_rope02_connect R_mid_tent01
Rope2_Seg01 null_rope02_connect
Rope2_Seg02 Rope2_Seg01
Rope2_Seg03 Rope2_Seg02
Rope2_Seg04 Rope2_Seg03
Rope2_Seg05 Rope2_Seg04
Rope2_Seg06 Rope2_Seg05
Rope2_Seg07 Rope2_Seg06
Rope2_Seg09 Rope2_Seg07
R_mid_hand01 Rope2_Seg09
R_mid_hand02 Rope2_Seg09
R_mid_hand03 Rope2_Seg09
spine02 spine01
spine03 spine02
pelvis spine03
null_rope03_connect pelvis
null_rope04_connect pelvis
Rope3_Seg01 null_rope03_connect
Rope3_Seg02 Rope3_Seg01
Rope3_Seg03 Rope3_Seg02
Rope3_Seg04 Rope3_Seg03
Rope3_Seg05 Rope3_Seg04
Rope3_Seg06 Rope3_Seg05
Rope3_Seg07 Rope3_Seg06
Rope3_Seg08 Rope3_Seg07
Rope3_Seg09 Rope3_Seg08
R_rear_hand01 Rope3_Seg09
R_rear_hand02 Rope3_Seg09
R_rear_hand03 Rope3_Seg09
Rope4_Seg01 null_rope04_connect
Rope4_Seg02 Rope4_Seg01
Rope4_Seg03 Rope4_Seg02
Rope4_Seg04 Rope4_Seg03
Rope4_Seg05 Rope4_Seg04
Rope4_Seg06 Rope4_Seg05
Rope4_Seg07 Rope4_Seg06
Rope4_Seg08 Rope4_Seg07
Rope4_Seg09 Rope4_Seg08
L_rear_hand01 Rope4_Seg09
L_rear_hand02 Rope4_Seg09
L_rear_hand03 Rope4_Seg09
[BasePosition]
#SegmentName Tx, Ty, Tz, Rx, Ry, Rz, BoneLength
MASTER 0.000000 0.000000 0.000000 -90.000000 0.000000 0.000000 10.000000 
root 0.000000 0.000000 0.000000 0.000000 0.000000 0.000000 10.000000 
chest 0.000000 0.000000 0.000000 0.000000 0.000000 0.000000 10.000000 
L_mid_tent01 0.000000 0.000000 0.000000 0.000000 0.000000 0.000000 10.000000 
R_mid_tent01 0.000000 0.000000 0.000000 0.000000 0.000000 0.000000 10.000000 
spine01 0.000000 0.000000 0.000000 0.000000 0.000000 0.000000 10.000000 
Bip01_Neck 0.000000 0.000000 0.000000 0.000000 0.000000 0.000000 10.000000 
L_humerus 0.000000 0.000000 0.000000 0.000000 0.000000 0.000000 10.000000 
R_humerus 0.000000 0.000000 0.000000 0.000000 0.000000 0.000000 10.000000 
weapon_bone 0.000000 0.000000 0.000000 0.000000 0.000000 0.000000 10.000000 
Bip01_Head 0.000000 0.000000 0.000000 0.000000 0.000000 0.000000 10.000000 
eye_left_bone 0.000000 0.000000 0.000000 0.000000 0.000000 0.000000 10.000000 
eye_right_bone 0.000000 0.000000 0.000000 0.000000 0.000000 0.000000 10.000000 
L_forearm 0.000000 0.000000 0.000000 0.000000 0.000000 0.000000 10.000000 
L_front_hand 0.000000 0.000000 0.000000 0.000000 0.000000 0.000000 10.000000 
L_weapon_bone 0.000000 0.000000 0.000000 0.000000 0.000000 0.000000 10.000000 
L_front_hand01_01 0.000000 0.000000 0.000000 0.000000 0.000000 0.000000 10.000000 
L_front_hand02_01 0.000000 0.000000 0.000000 0.000000 0.000000 0.000000 10.000000 
L_front_hand03_01 0.000000 0.000000 0.000000 0.000000 0.000000 0.000000 10.000000 
L_front_hand01_02 0.000000 0.000000 0.000000 0.000000 0.000000 0.000000 10.000000 
L_front_hand02_02 0.000000 0.000000 0.000000 0.000000 0.000000 0.000000 10.000000 
L_front_hand03_02 0.000000 0.000000 0.000000 0.000000 0.000000 0.000000 10.000000 
R_forearm 0.000000 0.000000 0.000000 0.000000 0.000000 0.000000 10.000000 
R_front_hand 0.000000 0.000000 0.000000 0.000000 0.000000 0.000000 10.000000 
R_weapon_bone 0.000000 0.000000 0.000000 0.000000 0.000000 0.000000 10.000000 
R_front_hand01_01 0.000000 0.000000 0.000000 0.000000 0.000000 0.000000 10.000000 
R_front_hand02_01 0.000000 0.000000 0.000000 0.000000 0.000000 0.000000 10.000000 
R_front_hand03_01 0.000000 0.000000 0.000000 0.000000 0.000000 0.000000 10.000000 
R_front_hand01_02 0.000000 0.000000 0.000000 0.000000 0.000000 0.000000 10.000000 
R_front_hand02_02 0.000000 0.000000 0.000000 0.000000 0.000000 0.000000 10.000000 
R_front_hand03_02 0.000000 0.000000 0.000000 0.000000 0.000000 0.000000 10.000000 
null_rope01_connect 0.000000 0.000000 0.000000 0.000000 0.000000 0.000000 10.000000 
Rope1_Seg01 0.000000 0.000000 0.000000 0.000000 0.000000 0.000000 10.000000 
Rope1_Seg02 0.000000 0.000000 0.000000 0.000000 0.000000 0.000000 10.000000 
Rope1_Seg03 0.000000 0.000000 0.000000 0.000000 0.000000 0.000000 10.000000 
Rope1_Seg04 0.000000 0.000000 0.000000 0.000000 0.000000 0.000000 10.000000 
Rope1_Seg05 0.000000 0.000000 0.000000 0.000000 0.000000 0.000000 10.000000 
Rope1_Seg06 0.000000 0.000000 0.000000 0.000000 0.000000 0.000000 10.000000 
Rope1_Seg07 0.000000 0.000000 0.000000 0.000000 0.000000 0.000000 10.000000 
Rope1_Seg09 0.000000 0.000000 0.000000 0.000000 0.000000 0.000000 10.000000 
L_mid_hand01 0.000000 0.000000 0.000000 0.000000 0.000000 0.000000 10.000000 
L_mid_hand02 0.000000 0.000000 0.000000 0.000000 0.000000 0.000000 10.000000 
L_mid_hand03 0.000000 0.000000 0.000000 0.000000 0.000000 0.000000 10.000000 
null_rope02_connect 0.000000 0.000000 0.000000 0.000000 0.000000 0.000000 10.000000 
Rope2_Seg01 0.000000 0.000000 0.000000 0.000000 0.000000 0.000000 10.000000 
Rope2_Seg02 0.000000 0.000000 0.000000 0.000000 0.000000 0.000000 10.000000 
Rope2_Seg03 0.000000 0.000000 0.000000 0.000000 0.000000 0.000000 10.000000 
Rope2_Seg04 0.000000 0.000000 0.000000 0.000000 0.000000 0.000000 10.000000 
Rope2_Seg05 0.000000 0.000000 0.000000 0.000000 0.000000 0.000000 10.000000 
Rope2_Seg06 0.000000 0.000000 0.000000 0.000000 0.000000 0.000000 10.000000 
Rope2_Seg07 0.000000 0.000000 0.000000 0.000000 0.000000 0.000000 10.000000 
Rope2_Seg09 0.000000 0.000000 0.000000 0.000000 0.000000 0.000000 10.000000 
R_mid_hand01 0.000000 0.000000 0.000000 0.000000 0.000000 0.000000 10.000000 
R_mid_hand02 0.000000 0.000000 0.000000 0.000000 0.000000 0.000000 10.000000 
R_mid_hand03 0.000000 0.000000 0.000000 0.000000 0.000000 0.000000 10.000000 
spine02 0.000000 0.000000 0.000000 0.000000 0.000000 0.000000 10.000000 
spine03 0.000000 0.000000 0.000000 0.000000 0.000000 0.000000 10.000000 
pelvis 0.000000 0.000000 0.000000 0.000000 0.000000 0.000000 10.000000 
null_rope03_connect 0.000000 0.000000 0.000000 0.000000 0.000000 0.000000 10.000000 
null_rope04_connect 0.000000 0.000000 0.000000 0.000000 0.000000 0.000000 10.000000 
Rope3_Seg01 0.000000 0.000000 0.000000 0.000000 0.000000 0.000000 10.000000 
Rope3_Seg02 0.000000 0.000000 0.000000 0.000000 0.000000 0.000000 10.000000 
Rope3_Seg03 0.000000 0.000000 0.000000 0.000000 0.000000 0.000000 10.000000 
Rope3_Seg04 0.000000 0.000000 0.000000 0.000000 0.000000 0.000000 10.000000 
Rope3_Seg05 0.000000 0.000000 0.000000 0.000000 0.000000 0.000000 10.000000 
Rope3_Seg06 0.000000 0.000000 0.000000 0.000000 0.000000 0.000000 10.000000 
Rope3_Seg07 0.000000 0.000000 0.000000 0.000000 0.000000 0.000000 10.000000 
Rope3_Seg08 0.000000 0.000000 0.000000 0.000000 0.000000 0.000000 10.000000 
Rope3_Seg09 0.000000 0.000000 0.000000 0.000000 0.000000 0.000000 10.000000 
R_rear_hand01 0.000000 0.000000 0.000000 0.000000 0.000000 0.000000 10.000000 
R_rear_hand02 0.000000 0.000000 0.000000 0.000000 0.000000 0.000000 10.000000 
R_rear_hand03 0.000000 0.000000 0.000000 0.000000 0.000000 0.000000 10.000000 
Rope4_Seg01 0.000000 0.000000 0.000000 0.000000 0.000000 0.000000 10.000000 
Rope4_Seg02 0.000000 0.000000 0.000000 0.000000 0.000000 0.000000 10.000000 
Rope4_Seg03 0.000000 0.000000 0.000000 0.000000 0.000000 0.000000 10.000000 
Rope4_Seg04 0.000000 0.000000 0.000000 0.000000 0.000000 0.000000 10.000000 
Rope4_Seg05 0.000000 0.000000 0.000000 0.000000 0.000000 0.000000 10.000000 
Rope4_Seg06 0.000000 0.000000 0.000000 0.000000 0.000000 0.000000 10.000000 
Rope4_Seg07 0.000000 0.000000 0.000000 0.000000 0.000000 0.000000 10.000000 
Rope4_Seg08 0.000000 0.000000 0.000000 0.000000 0.000000 0.000000 10.000000 
Rope4_Seg09 0.000000 0.000000 0.000000 0.000000 0.000000 0.000000 10.000000 
L_rear_hand01 0.000000 0.000000 0.000000 0.000000 0.000000 0.000000 10.000000 
L_rear_hand02 0.000000 0.000000 0.000000 0.000000 0.000000 0.000000 10.000000 
L_rear_hand03 0.000000 0.000000 0.000000 0.000000 0.000000 0.000000 10.000000 
#Beginning of Data. Separated by tabs
#Fr	Tx	Ty	Tz	Rx	Ry	Rz	SF
[MASTER]
13 -163.680054 2214.531738 1146.934937 0.001660 0.001660 0.001660 2499.280273
14 -152.492889 2445.145752 1233.322021 0.001660 0.001660 0.001660 2742.822510
[root]
13 45.935841 48.835892 858.452087 -91.366638 -7.073133 -92.963509 861.066223
14 31.688433 60.887753 813.796753 -93.292793 -7.112874 -91.826698 816.686340
[chest]
13 -84.512650 -34.090519 0.000000 7.221534 10.912860 149.925171 91.129311
14 -84.512650 -34.090519 0.000000 7.229552 11.281457 148.485626 91.129311
[L_mid_tent01]
13 27.298954 22.179068 -249.918701 -0.118931 19.796282 79.976913 252.381668
14 27.298943 22.179066 -249.918701 -0.097130 19.550123 80.391197 252.381668
[R_mid_tent01]
13 23.228794 24.509907 226.238495 163.727203 -24.201704 67.506516 228.744751
14 23.228794 24.509907 226.238495 160.544830 -25.596460 67.235527 228.744751
[spine01]
13 -0.361383 -0.195265 0.000000 -0.000001 -0.000007 22.052340 0.410763
14 -0.361383 -0.195265 0.000000 -0.000001 -0.000007 22.052340 0.410763
[Bip01_Neck]
13 165.484543 71.581718 0.000119 176.643677 -1.657967 43.431911 180.302734
14 165.484543 71.581718 0.000119 176.643677 -1.657967 43.431915 180.302734
[L_humerus]
13 -13.983130 -135.272980 -120.471481 121.718208 81.390640 -147.498550 181.680161
14 -13.983130 -135.272980 -120.471481 138.211868 78.224884 -130.763168 181.680161
[R_humerus]
13 -13.983309 -135.273102 125.287651 -173.269760 -56.687881 -91.495453 184.909012
14 -13.983309 -135.273102 125.287651 -173.821976 -50.990417 -90.811676 184.909012
[weapon_bone]
13 235.964890 -300.705902 0.000000 0.000000 -89.951546 -128.212341 382.234833
14 235.964890 -300.705902 0.000000 0.000000 -89.951546 -128.212341 382.234833
[Bip01_Head]
13 213.327026 186.042328 7.559206 4.962490 2.797846 -43.898743 283.155945
14 213.329620 186.030884 7.644348 4.962490 2.797846 -43.898743 283.152710
[eye_left_bone]
13 -24.626970 125.451866 -64.772606 0.000000 -90.000000 -99.840431 143.318359
14 -24.626970 125.451866 -64.772606 0.000000 -90.000000 -99.840431 143.318359
[eye_right_bone]
13 -24.626970 125.451866 64.327362 0.000000 -89.965736 80.156380 143.117676
14 -24.626970 125.451866 64.327362 0.000000 -89.972023 80.156380 143.117676
[L_forearm]
13 322.776093 0.000000 -0.000119 0.000406 -0.002312 -109.934174 322.776093
14 322.776093 0.000000 -0.000119 0.000406 -0.002312 -109.928139 322.776093
[L_front_hand]
13 241.149185 -0.042021 -3.300071 136.107224 -1.837680 -27.424877 241.171753
14 241.149185 -0.042021 -3.300071 108.422577 -1.837395 -27.423840 241.171753
[L_weapon_bone]
13 156.183838 0.000000 0.000000 0.000014 0.000007 0.000001 156.183838
14 156.183838 0.000000 0.000000 0.000014 0.000007 0.000001 156.183838
[L_front_hand01_01]
13 86.095154 20.947098 -0.655860 -0.281026 -0.528937 65.755089 88.609184
14 86.095154 20.947098 -0.655860 -0.289102 -0.524108 66.611076 88.609184
[L_front_hand02_01]
13 86.935165 -11.437475 24.513514 141.611877 -54.742973 -46.215725 91.046425
14 86.935165 -11.437475 24.513514 142.580521 -55.269005 -47.395390 91.046425
[L_front_hand03_01]
13 86.637497 -14.123976 -20.424902 -141.973572 52.970398 -48.259937 90.126129
14 86.637497 -14.123976 -20.424902 -142.879883 53.494282 -49.391994 90.126129
[L_front_hand01_02]
13 71.020905 -0.000179 0.000030 0.000312 -0.002326 -105.294807 71.020905
14 71.020905 -0.000179 0.000030 0.000309 -0.002327 -105.139183 71.020905
[L_front_hand02_02]
13 71.020927 -0.000119 0.000060 0.000312 -0.002326 -105.294807 71.020927
14 71.020927 -0.000119 0.000060 0.000309 -0.002327 -105.139183 71.020927
[L_front_hand03_02]
13 71.020905 -0.000060 0.000060 0.000312 -0.002326 -105.294807 71.020905
14 71.020905 -0.000060 0.000060 0.000309 -0.002327 -105.139183 71.020905
[R_forearm]
13 322.776428 -0.000060 0.000030 0.201697 0.066404 -108.770081 322.776428
14 322.776428 -0.000060 0.000030 0.201686 0.066436 -108.788330 322.776428
[R_front_hand]
13 238.847015 -0.006795 2.210259 65.494118 -10.644075 -26.314222 238.857239
14 238.847015 -0.006795 2.210259 107.182472 -10.645043 -26.315655 238.857239
[R_weapon_bone]
13 155.664093 0.002503 -0.000030 0.003487 0.001180 -90.988930 155.664078
14 155.664093 0.002503 -0.000030 0.003487 0.001180 -90.988914 155.664078
[R_front_hand01_01]
13 87.624611 14.231146 22.918642 -139.165207 -53.267754 43.295242 91.683487
14 87.624611 14.231146 22.918642 -141.083969 -54.436913 45.672482 91.683487
[R_front_hand02_01]
13 89.356956 14.367283 -19.491137 139.980438 51.699215 45.970734 92.579636
14 89.356956 14.367283 -19.491137 141.813004 52.852688 48.289932 92.579636
[R_front_hand03_01]
13 87.286232 -22.307278 -0.143439 0.071045 -0.448771 -63.677063 90.091743
14 87.286232 -22.307278 -0.143439 0.082367 -0.444902 -65.508453 90.091743
[R_front_hand01_02]
13 71.020905 0.000060 0.000119 0.002330 -0.000281 103.760513 71.020905
14 71.020905 0.000060 0.000119 0.002331 -0.000279 103.639610 71.020905
[R_front_hand02_02]
13 71.020844 -0.000030 -0.000119 0.002330 -0.000281 103.760513 71.020836
14 71.020844 -0.000030 -0.000119 0.002331 -0.000279 103.639610 71.020836
[R_front_hand03_02]
13 71.020905 0.000000 0.000030 0.002330 -0.000281 103.760513 71.020905
14 71.020905 0.000000 0.000030 0.002331 -0.000279 103.639610 71.020905
[null_rope01_connect]
13 328.732483 0.000000 -0.000238 -156.806641 -67.854446 173.396622 328.732483
14 328.732483 0.000000 -0.000238 -160.743530 -66.655449 177.184692 328.732483
[Rope1_Seg01]
13 0.000019 -0.000340 0.000039 -22.893944 -16.350014 -179.895340 0.000343
14 0.000017 -0.000365 0.000042 -39.040798 -29.754395 -163.087143 0.000368
[Rope1_Seg02]
13 139.999863 -0.000179 0.000000 -0.233635 17.728178 -13.404655 139.999863
14 139.999863 -0.000179 0.000000 4.529131 18.133780 -9.281979 139.999863
[Rope1_Seg03]
13 139.999924 0.000060 -0.000060 -2.246080 17.151031 -15.120512 139.999924
14 139.999924 0.000060 -0.000060 -1.867026 25.280138 -18.364178 139.999924
[Rope1_Seg04]
13 139.999924 -0.000060 -0.000119 -0.780160 8.739552 -9.751843 139.999924
14 139.999924 -0.000060 -0.000119 -2.534411 16.027393 -15.627099 139.999924
[Rope1_Seg05]
13 139.999832 0.000119 -0.000060 -3.248354 11.054245 -5.663235 139.999832
14 139.999832 0.000119 -0.000060 -3.103756 11.471251 -5.348788 139.999832
[Rope1_Seg06]
13 139.999954 0.000119 -0.000060 -15.458060 21.826155 -5.857262 139.999954
14 139.999954 0.000119 -0.000060 -13.423100 21.248388 -2.223472 139.999954
[Rope1_Seg07]
13 139.999985 0.000060 0.000000 -28.719566 20.520500 -0.167112 139.999985
14 139.999985 0.000060 0.000000 -29.062059 25.577810 3.894512 139.999985
[Rope1_Seg09]
13 121.602913 0.000119 -0.000089 -89.793175 -1.359789 0.847147 121.602913
14 121.602913 0.000119 -0.000089 -89.793175 -1.359789 0.847147 121.602913
[L_mid_hand01]
13 103.859421 1.038730 8.195221 109.630608 -42.428204 -14.062104 104.187431
14 103.859421 1.038730 8.195221 110.331215 -44.470776 -15.085362 104.187431
[L_mid_hand02]
13 105.572853 -4.139662 -10.864139 -147.734787 32.524982 -39.820675 106.211075
14 105.572853 -4.139662 -10.864139 -148.937714 33.668659 -42.029243 106.211075
[L_mid_hand03]
13 104.641464 17.579376 -3.913581 -13.849796 12.791805 45.822666 106.179977
14 104.641464 17.579376 -3.913581 -13.360330 13.301838 47.989159 106.179977
[null_rope02_connect]
13 328.732849 0.000179 -0.000119 -115.194145 64.523026 31.731161 328.732849
14 328.732849 0.000179 -0.000119 -106.823593 61.423443 39.525494 328.732849
[Rope2_Seg01]
13 0.000048 0.000114 0.000000 128.227386 -49.599098 13.290689 0.000123
14 0.000049 0.000110 0.000000 131.149826 -57.457451 15.776701 0.000121
[Rope2_Seg02]
13 139.999741 -0.000060 -0.000119 -12.241385 -3.014842 -21.820244 139.999756
14 139.999741 -0.000060 -0.000119 -8.543447 2.587695 -19.425232 139.999756
[Rope2_Seg03]
13 140.000107 0.000030 0.000000 -11.813083 -0.809674 -53.218685 140.000107
14 140.000107 0.000030 0.000000 -7.280738 6.150923 -37.543884 140.000107
[Rope2_Seg04]
13 139.999802 0.000000 -0.000060 -2.747003 25.438471 -15.576095 139.999802
14 139.999802 0.000000 -0.000060 1.176471 12.974820 -23.858299 139.999802
[Rope2_Seg05]
13 139.999985 -0.000060 0.000119 -1.774142 13.278717 -4.423591 139.999985
14 139.999985 -0.000060 0.000119 -1.811304 13.601177 -4.000858 139.999985
[Rope2_Seg06]
13 139.999893 -0.000030 -0.000119 -0.067775 6.003697 -2.835007 139.999893
14 139.999893 -0.000030 -0.000119 0.499221 6.056995 -3.612737 139.999893
[Rope2_Seg07]
13 139.999893 0.000060 -0.000060 -0.016790 2.118465 -0.997865 139.999893
14 139.999893 0.000060 -0.000060 0.629736 3.472608 -2.300034 139.999893
[Rope2_Seg09]
13 121.338966 0.000089 -0.000060 33.793236 -1.359788 -0.847141 121.338966
14 121.338966 0.000089 -0.000060 33.793236 -1.359788 -0.847141 121.338966
[R_mid_hand01]
13 104.680779 11.144459 -10.335981 -35.659058 33.675755 40.429829 105.778534
14 104.680779 11.144459 -10.335981 -36.495327 32.739510 38.894321 105.778534
[R_mid_hand02]
13 104.070427 2.443552 8.231699 69.379761 -45.224785 15.491559 104.424065
14 104.070427 2.443552 8.231699 69.926315 -43.736984 14.713636 104.424065
[R_mid_hand03]
13 106.028137 -11.221827 -5.996406 -170.548004 12.734514 -50.222630 106.788818
14 106.028137 -11.221827 -5.996406 -170.196442 12.469419 -48.616360 106.788818
[spine02]
13 129.756927 0.001550 0.000119 0.537208 -4.023964 -15.434606 129.756927
14 129.756927 0.001550 0.000119 0.538790 -4.023755 -15.479615 129.756927
[spine03]
13 78.613991 0.081635 -4.899007 1.999430 3.776923 18.042217 78.766525
14 78.613991 0.081635 -4.899008 2.001833 3.776256 18.065674 78.766525
[pelvis]
13 169.435242 0.051022 0.000000 -0.070324 -0.177739 17.263161 169.435257
14 169.435242 0.051022 0.000000 -0.070433 -0.177696 17.333202 169.435257
[null_rope03_connect]
13 -1.257226 -2.466202 137.391083 -90.842850 -86.873505 146.005630 137.418976
14 -1.257226 -2.466202 137.391083 -131.224945 -87.042358 -173.656189 137.418976
[null_rope04_connect]
13 -1.259640 -2.480268 -137.844437 -90.842850 -86.873505 146.005630 137.872513
14 -1.259640 -2.480268 -137.844437 -131.224945 -87.042358 -173.656189 137.872513
[Rope3_Seg01]
13 0.000057 -0.000184 0.000000 9.464973 -21.518349 -55.709450 0.000193
14 0.000055 -0.000196 0.000000 10.564244 -11.998568 -51.787186 0.000204
[Rope3_Seg02]
13 139.999924 -0.000119 0.000060 14.954229 27.015093 33.702309 139.999924
14 139.999924 -0.000119 0.000060 8.318822 20.977539 31.734358 139.999924
[Rope3_Seg03]
13 139.999924 -0.000119 0.000119 146.170105 32.362854 36.652309 139.999924
14 139.999924 -0.000119 0.000119 -171.989166 22.323551 38.771690 139.999924
[Rope3_Seg04]
13 139.999924 0.000119 0.000000 9.877538 -2.833463 -13.051379 139.999924
14 139.999924 0.000119 0.000000 -10.803954 -13.458303 -9.911854 139.999924
[Rope3_Seg05]
13 139.999924 -0.000238 0.000060 -2.810578 -6.411340 -5.665426 139.999924
14 139.999924 -0.000238 0.000060 -10.115020 -12.433961 -4.289295 139.999924
[Rope3_Seg06]
13 139.999893 -0.000119 -0.000060 -0.003242 -4.356944 -5.598056 139.999893
14 139.999893 -0.000119 -0.000060 -1.635739 -6.063499 -5.025012 139.999893
[Rope3_Seg07]
13 139.999771 0.000060 -0.000119 0.620536 -2.954312 -4.413663 139.999771
14 139.999771 0.000060 -0.000119 -0.311161 -3.759449 -3.591130 139.999771
[Rope3_Seg08]
13 139.999985 -0.000060 0.000000 0.584759 -1.952871 -2.857766 139.999985
14 139.999985 -0.000060 0.000000 0.114977 -2.281608 -2.211926 139.999985
[Rope3_Seg09]
13 90.185997 -0.000179 -0.000060 89.793228 -1.359877 -0.847183 90.185997
14 90.185997 -0.000179 -0.000060 89.793228 -1.359877 -0.847183 90.185997
[R_rear_hand01]
13 103.366196 -6.073594 -10.757982 -165.364609 20.073742 -42.141056 104.101845
14 103.366196 -6.073594 -10.757982 -164.915863 19.747875 -40.821388 104.101845
[R_rear_hand02]
13 100.509819 12.039542 -7.992327 -30.084070 25.665682 39.802124 101.543350
14 100.509819 12.039542 -7.992327 -30.611040 25.017698 38.577400 101.543350
[R_rear_hand03]
13 101.539970 5.215704 5.435467 82.244064 -42.772606 9.150358 101.819031
14 101.539970 5.215704 5.435467 82.396393 -41.501781 8.918384 101.819031
[Rope4_Seg01]
13 -0.000017 -0.000057 -0.000153 -71.471802 -42.952694 -145.958115 0.000164
14 -0.000016 -0.000055 -0.000153 -47.771423 -46.352238 -170.601578 0.000163
[Rope4_Seg02]
13 139.999985 0.000060 0.000119 0.356672 11.372780 6.058825 139.999985
14 139.999985 0.000060 0.000119 -0.949793 14.266804 10.324694 139.999985
[Rope4_Seg03]
13 139.999924 0.000000 -0.000238 0.405587 16.820316 9.225451 139.999924
14 139.999924 0.000000 -0.000238 -6.959963 18.484318 14.821856 139.999924
[Rope4_Seg04]
13 139.999985 0.000000 0.000119 -4.437740 19.774746 12.272892 139.999985
14 139.999985 0.000000 0.000119 -48.097157 13.590990 15.977329 139.999985
[Rope4_Seg05]
13 139.999802 -0.000060 -0.000119 -51.864304 12.544809 9.739608 139.999802
14 139.999802 -0.000060 -0.000119 -55.029850 -1.452293 11.027802 139.999802
[Rope4_Seg06]
13 139.999924 0.000000 0.000060 -97.992249 1.385790 10.220953 139.999924
14 139.999924 0.000000 0.000060 -23.975208 -8.041857 5.254907 139.999924
[Rope4_Seg07]
13 139.999802 0.000000 0.000000 -18.803698 -12.342280 1.725356 139.999802
14 139.999802 0.000000 0.000000 -15.607095 -14.704007 3.472102 139.999802
[Rope4_Seg08]
13 139.999924 0.000000 0.000119 -5.302713 -11.759048 -2.647603 139.999924
14 139.999924 0.000000 0.000119 -7.238983 -15.337016 -0.707445 139.999924
[Rope4_Seg09]
13 90.185791 0.000060 0.000060 -135.617828 2.228885 0.850567 90.185791
14 90.185791 0.000060 0.000060 -135.617828 2.228885 0.850567 90.185791
[L_rear_hand01]
13 101.696655 -8.392275 -7.654577 -28.796082 -27.129267 137.298477 102.329041
14 101.696655 -8.392275 -7.654577 -27.588619 -28.361088 134.712097 102.329041
[L_rear_hand02]
13 102.726799 -1.568258 5.773216 81.840157 45.725384 170.277420 102.900848
14 102.726799 -1.568258 5.773216 81.431328 48.300430 169.720108 102.900848
[L_rear_hand03]
13 104.552910 9.721220 -10.420293 -166.442245 -20.805418 -134.771164 105.519653
14 104.552910 9.721220 -10.420293 -167.421646 -21.393099 -132.057724 105.519653
